<svg xmlns="http://www.w3.org/2000/svg" width="1400" height="620" viewBox="0 0 1400 620">
  <rect width="1400" height="620" fill="#f8fafc"/>
  <style>
    .box{fill:#0f766e;rx:10;}
    .diamond{fill:#0369a1;}
    .text{font-family:Arial, Helvetica, sans-serif;fill:#e2e8f0;font-size:22px;font-weight:700}
    .label{font-family:Arial, Helvetica, sans-serif;fill:#111827;font-size:17px;font-weight:700}
    .line{stroke:#334155;stroke-width:3;fill:none}
  </style>

  <rect x="50" y="260" width="210" height="86" rx="10" fill="#0f766e"/>
  <text x="155" y="313" text-anchor="middle" class="text">User Problem</text>

  <polygon points="390,200 560,303 390,406 220,303" class="diamond"/>
  <text x="390" y="292" text-anchor="middle" class="text">Can 2005 tech solve</text>
  <text x="390" y="322" text-anchor="middle" class="text">around 80%?</text>

  <rect x="680" y="92" width="320" height="86" rx="10" fill="#0f766e"/>
  <text x="840" y="145" text-anchor="middle" class="text">Deterministic Solution</text>

  <polygon points="790,330 960,433 790,536 620,433" class="diamond"/>
  <text x="790" y="422" text-anchor="middle" class="text">Is it Type III</text>
  <text x="790" y="452" text-anchor="middle" class="text">or Type IV?</text>

  <rect x="1070" y="300" width="260" height="86" rx="10" fill="#0f766e"/>
  <text x="1200" y="353" text-anchor="middle" class="text">Proceed to Phase 1</text>

  <rect x="1070" y="470" width="260" height="86" rx="10" fill="#0f766e"/>
  <text x="1200" y="523" text-anchor="middle" class="text">Re-evaluate Problem</text>

  <defs>
    <marker id="arrow" markerWidth="10" markerHeight="10" refX="9" refY="3" orient="auto" markerUnits="strokeWidth">
      <path d="M0,0 L9,3 L0,6 z" fill="#334155"/>
    </marker>
  </defs>

  <line x1="260" y1="303" x2="220" y2="303" class="line" marker-end="url(#arrow)"/>
  <line x1="560" y1="260" x2="680" y2="160" class="line" marker-end="url(#arrow)"/>
  <line x1="525" y1="360" x2="660" y2="405" class="line" marker-end="url(#arrow)"/>
  <line x1="960" y1="402" x2="1070" y2="340" class="line" marker-end="url(#arrow)"/>
  <line x1="960" y1="468" x2="1070" y2="513" class="line" marker-end="url(#arrow)"/>

  <text x="620" y="210" class="label">Yes</text>
  <text x="600" y="350" class="label">No</text>
  <text x="1015" y="380" class="label">Yes</text>
  <text x="1015" y="495" class="label">No</text>
</svg>
