<svg xmlns="http://www.w3.org/2000/svg" width="1300" height="520" viewBox="0 0 1300 520">
  <rect width="1300" height="520" fill="#f8fafc"/>
  <style>
    .box{fill:#0f766e;rx:10;}
    .diamond{fill:#0369a1;}
    .text{font-family:Arial, Helvetica, sans-serif;fill:#e2e8f0;font-size:24px;font-weight:700}
    .t2{font-family:Arial, Helvetica, sans-serif;fill:#111827;font-size:20px;font-weight:700}
    .label{font-family:Arial, Helvetica, sans-serif;fill:#111827;font-size:18px;font-weight:700}
    .line{stroke:#334155;stroke-width:3;fill:none}
  </style>

  <rect x="60" y="205" width="190" height="80" rx="10" fill="#0f766e"/>
  <text x="155" y="253" text-anchor="middle" class="text">User Problem</text>

  <polygon points="380,165 540,245 380,325 220,245" class="diamond"/>
  <text x="380" y="238" text-anchor="middle" class="text">Can 2005 Tech</text>
  <text x="380" y="266" text-anchor="middle" class="text">solve most of it?</text>

  <rect x="650" y="90" width="290" height="84" rx="10" fill="#0f766e"/>
  <text x="795" y="140" text-anchor="middle" class="text">Deterministic Solution</text>

  <polygon points="760,300 920,380 760,460 600,380" class="diamond"/>
  <text x="760" y="372" text-anchor="middle" class="text">Is it Type III</text>
  <text x="760" y="400" text-anchor="middle" class="text">or Type IV?</text>

  <rect x="1010" y="250" width="230" height="84" rx="10" fill="#0f766e"/>
  <text x="1125" y="300" text-anchor="middle" class="text">Proceed to Phase 1</text>

  <rect x="1010" y="390" width="230" height="84" rx="10" fill="#0f766e"/>
  <text x="1125" y="440" text-anchor="middle" class="text">Re-evaluate Problem</text>

  <defs>
    <marker id="arrow" markerWidth="10" markerHeight="10" refX="9" refY="3" orient="auto" markerUnits="strokeWidth">
      <path d="M0,0 L9,3 L0,6 z" fill="#334155"/>
    </marker>
  </defs>

  <line x1="250" y1="245" x2="220" y2="245" class="line" marker-end="url(#arrow)"/>
  <line x1="540" y1="205" x2="650" y2="132" class="line" marker-end="url(#arrow)"/>
  <line x1="500" y1="290" x2="640" y2="350" class="line" marker-end="url(#arrow)"/>
  <line x1="920" y1="350" x2="1010" y2="292" class="line" marker-end="url(#arrow)"/>
  <line x1="920" y1="410" x2="1010" y2="432" class="line" marker-end="url(#arrow)"/>

  <text x="590" y="175" class="label">Yes</text>
  <text x="575" y="325" class="label">No</text>
  <text x="960" y="330" class="label">Yes</text>
  <text x="960" y="422" class="label">No</text>
</svg>
