<svg xmlns="http://www.w3.org/2000/svg" width="1460" height="520" viewBox="0 0 1460 520">
  <rect width="1460" height="520" fill="#f8fafc"/>
  <style>
    .box{fill:#0f766e}
    .diamond{fill:#0369a1}
    .txt{font-family:Arial, Helvetica, sans-serif;fill:#e2e8f0;font-size:21px;font-weight:700}
    .label{font-family:Arial, Helvetica, sans-serif;fill:#111827;font-size:18px;font-weight:700}
    .line{stroke:#334155;stroke-width:3;fill:none}
  </style>

  <rect x="40" y="220" width="190" height="82" rx="10" class="box"/>
  <text x="135" y="272" text-anchor="middle" class="txt">Input</text>

  <polygon points="360,170 520,261 360,352 200,261" class="diamond"/>
  <text x="360" y="250" text-anchor="middle" class="txt">Deterministic</text>
  <text x="360" y="278" text-anchor="middle" class="txt">Match?</text>

  <rect x="600" y="80" width="190" height="82" rx="10" class="box"/>
  <text x="695" y="132" text-anchor="middle" class="txt">Output</text>

  <rect x="600" y="330" width="240" height="82" rx="10" class="box"/>
  <text x="720" y="382" text-anchor="middle" class="txt">LLM Processing</text>

  <rect x="930" y="330" width="260" height="82" rx="10" class="box"/>
  <text x="1060" y="377" text-anchor="middle" class="txt">Deterministic</text>
  <text x="1060" y="404" text-anchor="middle" class="txt">Validator</text>

  <rect x="1260" y="330" width="190" height="82" rx="10" class="box"/>
  <text x="1355" y="382" text-anchor="middle" class="txt">Output</text>

  <defs>
    <marker id="arrow2" markerWidth="10" markerHeight="10" refX="9" refY="3" orient="auto" markerUnits="strokeWidth">
      <path d="M0,0 L9,3 L0,6 z" fill="#334155"/>
    </marker>
  </defs>

  <line x1="230" y1="261" x2="200" y2="261" class="line" marker-end="url(#arrow2)"/>
  <line x1="520" y1="214" x2="600" y2="131" class="line" marker-end="url(#arrow2)"/>
  <line x1="500" y1="315" x2="600" y2="365" class="line" marker-end="url(#arrow2)"/>
  <line x1="840" y1="371" x2="930" y2="371" class="line" marker-end="url(#arrow2)"/>
  <line x1="1190" y1="371" x2="1260" y2="371" class="line" marker-end="url(#arrow2)"/>

  <text x="555" y="190" class="label">Yes</text>
  <text x="545" y="320" class="label">No</text>
</svg>
