<svg xmlns="http://www.w3.org/2000/svg" width="1380" height="460" viewBox="0 0 1380 460">
  <rect width="1380" height="460" fill="#f8fafc"/>
  <style>
    .box{fill:#0f766e}
    .diamond{fill:#0369a1}
    .txt{font-family:Arial, Helvetica, sans-serif;fill:#e2e8f0;font-size:22px;font-weight:700}
    .label{font-family:Arial, Helvetica, sans-serif;fill:#111827;font-size:18px;font-weight:700}
    .line{stroke:#334155;stroke-width:3;fill:none}
  </style>

  <rect x="40" y="190" width="180" height="78" rx="10" class="box"/>
  <text x="130" y="237" text-anchor="middle" class="txt">Input</text>

  <polygon points="340,150 490,230 340,310 190,230" class="diamond"/>
  <text x="340" y="222" text-anchor="middle" class="txt">Deterministic</text>
  <text x="340" y="250" text-anchor="middle" class="txt">Match?</text>

  <rect x="560" y="75" width="180" height="78" rx="10" class="box"/>
  <text x="650" y="122" text-anchor="middle" class="txt">Output</text>

  <rect x="560" y="285" width="220" height="78" rx="10" class="box"/>
  <text x="670" y="332" text-anchor="middle" class="txt">LLM Processing</text>

  <rect x="860" y="285" width="240" height="78" rx="10" class="box"/>
  <text x="980" y="332" text-anchor="middle" class="txt">Deterministic</text>
  <text x="980" y="358" text-anchor="middle" class="txt">Validator</text>

  <rect x="1170" y="285" width="180" height="78" rx="10" class="box"/>
  <text x="1260" y="332" text-anchor="middle" class="txt">Output</text>

  <defs>
    <marker id="arrow2" markerWidth="10" markerHeight="10" refX="9" refY="3" orient="auto" markerUnits="strokeWidth">
      <path d="M0,0 L9,3 L0,6 z" fill="#334155"/>
    </marker>
  </defs>

  <line x1="220" y1="230" x2="190" y2="230" class="line" marker-end="url(#arrow2)"/>
  <line x1="490" y1="190" x2="560" y2="114" class="line" marker-end="url(#arrow2)"/>
  <line x1="470" y1="275" x2="560" y2="324" class="line" marker-end="url(#arrow2)"/>
  <line x1="780" y1="324" x2="860" y2="324" class="line" marker-end="url(#arrow2)"/>
  <line x1="1100" y1="324" x2="1170" y2="324" class="line" marker-end="url(#arrow2)"/>

  <text x="520" y="160" class="label">Yes</text>
  <text x="510" y="282" class="label">No</text>
</svg>
